# xmcd
#
# Track frame offsets:
#	150
#	12595
#	24600
#	36917
#	50970
#	64385
#	78477
#	94015
#	107255
#	122242
#	132780
#	144355
#	159012
#	172577
#	186765
#	200695
#	213642
#	225667
#	240207
#	251857
#	265420
#	276317
#	286865
#	300230
#
# Disc length: 4181 seconds
#
# Revision: 0
# Processed by: cddbd v1.5.1PL2 Copyright (c) Steve Scherf et al.
# Submitted via: dBpowerAMP V4.0
#
DISCID=50105318
DTITLE=Pedro Infante - Historia Musical
DYEAR=1900
DGENRE=Country
TTITLE0=Vieja chismosa
TTITLE1=No, tu no
TTITLE2=Vete de mi
TTITLE3=Debias de volver
TTITLE4=Fiesta mexicana
TTITLE5=Que te cuesta
TTITLE6=Sobre las olas
TTITLE7=Vica mi desgracia
TTITLE8=Orgullo ranchero
TTITLE9=Que pasa mi cuate
TTITLE10=Mi lindo Monterrey
TTITLE11=Cuando lloran los valientes
TTITLE12=Ramito de azahar
TTITLE13=Caballo blanco
TTITLE14=Ojitos morenos
TTITLE15=El aventurero
TTITLE16=Mi cariñito
TTITLE17=Maldita sea mi suerte
TTITLE18=Por ultima vez
TTITLE19=Criolla
TTITLE20=Vuela, vuela pajarito
TTITLE21=Sera por nueva
TTITLE22=Mi consentida
TTITLE23=Me voy por ahí
EXTD=
EXTT0=
EXTT1=
EXTT2=
EXTT3=
EXTT4=
EXTT5=
EXTT6=
EXTT7=
EXTT8=
EXTT9=
EXTT10=
EXTT11=
EXTT12=
EXTT13=
EXTT14=
EXTT15=
EXTT16=
EXTT17=
EXTT18=
EXTT19=
EXTT20=
EXTT21=
EXTT22=
EXTT23=
PLAYORDER=
